<svg xmlns="http://www.w3.org/2000/svg" viewBox="0 0 720 560" role="img" aria-label="Huayu learning cards and sentence blocks">
  <rect x="68" y="52" width="584" height="456" rx="48" fill="#fffdf8"/>
  <circle cx="578" cy="124" r="54" fill="#5aa9e6"/>
  <circle cx="154" cy="422" r="62" fill="#5ebfa3"/>
  <rect x="138" y="116" width="190" height="250" rx="24" fill="#f8cad5" stroke="#24313f" stroke-width="8"/>
  <rect x="392" y="148" width="180" height="220" rx="24" fill="#ffe47c" stroke="#24313f" stroke-width="8"/>
  <path d="M214 204c0-35 28-62 62-62s62 27 62 62-28 62-62 62-62-27-62-62Z" fill="#fff7e7" stroke="#24313f" stroke-width="7"/>
  <path d="M248 201c8 11 48 11 56 0" fill="none" stroke="#24313f" stroke-width="8" stroke-linecap="round"/>
  <circle cx="254" cy="190" r="7" fill="#24313f"/>
  <circle cx="298" cy="190" r="7" fill="#24313f"/>
  <rect x="170" y="394" width="112" height="62" rx="16" fill="#fff" stroke="#24313f" stroke-width="6"/>
  <rect x="304" y="394" width="112" height="62" rx="16" fill="#fff" stroke="#24313f" stroke-width="6"/>
  <rect x="438" y="394" width="112" height="62" rx="16" fill="#fff" stroke="#24313f" stroke-width="6"/>
  <path d="M192 426h70M326 426h70M460 426h70" stroke="#d85776" stroke-width="9" stroke-linecap="round"/>
  <path d="M434 210h92M434 248h74M434 286h98" stroke="#24313f" stroke-width="12" stroke-linecap="round"/>
  <path d="M126 95 96 68M610 424l42 30M106 218 60 220" stroke="#24313f" stroke-width="10" stroke-linecap="round"/>
</svg>
